solid Exported from Blender-2.71 (sub 0)
facet normal 0.000000 0.000000 -1.000000
outer loop
vertex 5.000000 5.000000 0.000000
vertex 5.000000 -5.000000 0.000000
vertex -5.000000 -4.999999 0.000000
endloop
endfacet
facet normal -0.000000 0.000000 -1.000000
outer loop
vertex -5.000000 -4.999999 0.000000
vertex -4.999998 5.000002 0.000000
vertex 5.000000 5.000000 0.000000
endloop
endfacet
facet normal -0.000000 0.000000 1.000000
outer loop
vertex 5.000002 4.999997 10.000000
vertex -5.000000 5.000000 10.000000
vertex -5.000002 -4.999998 10.000000
endloop
endfacet
facet normal 0.000000 0.000000 1.000000
outer loop
vertex -5.000002 -4.999998 10.000000
vertex 4.999997 -5.000003 10.000000
vertex 5.000002 4.999997 10.000000
endloop
endfacet
facet normal 1.000000 -0.000001 -0.000000
outer loop
vertex 5.000000 5.000000 0.000000
vertex 5.000002 4.999997 10.000000
vertex 4.999997 -5.000003 10.000000
endloop
endfacet
facet normal 1.000000 0.000000 0.000000
outer loop
vertex 4.999997 -5.000003 10.000000
vertex 5.000000 -5.000000 0.000000
vertex 5.000000 5.000000 0.000000
endloop
endfacet
facet normal -0.000000 -1.000000 -0.000000
outer loop
vertex 5.000000 -5.000000 0.000000
vertex 4.999997 -5.000003 10.000000
vertex -5.000002 -4.999998 10.000000
endloop
endfacet
facet normal -0.000000 -1.000000 0.000000
outer loop
vertex -5.000002 -4.999998 10.000000
vertex -5.000000 -4.999999 0.000000
vertex 5.000000 -5.000000 0.000000
endloop
endfacet
facet normal -1.000000 0.000000 -0.000000
outer loop
vertex -5.000000 -4.999999 0.000000
vertex -5.000002 -4.999998 10.000000
vertex -5.000000 5.000000 10.000000
endloop
endfacet
facet normal -1.000000 0.000000 -0.000000
outer loop
vertex -5.000000 5.000000 10.000000
vertex -4.999998 5.000002 0.000000
vertex -5.000000 -4.999999 0.000000
endloop
endfacet
facet normal 0.000000 1.000000 0.000000
outer loop
vertex 5.000002 4.999997 10.000000
vertex 5.000000 5.000000 0.000000
vertex -4.999998 5.000002 0.000000
endloop
endfacet
facet normal 0.000000 1.000000 0.000000
outer loop
vertex -4.999998 5.000002 0.000000
vertex -5.000000 5.000000 10.000000
vertex 5.000002 4.999997 10.000000
endloop
endfacet
endsolid Exported from Blender-2.71 (sub 0)
